<svg width="49" height="49" viewBox="0 0 49 49" fill="none" xmlns="http://www.w3.org/2000/svg">
<rect width="49" height="49" rx="24.5" fill="#F53B00"/>
<rect x="0.7" y="0.7" width="47.6" height="47.6" rx="23.8" stroke="url(#paint0_linear_59_819)" stroke-opacity="0.3" stroke-width="1.4"/>
<g opacity="0.25" filter="url(#filter0_f_59_819)">
<path d="M24.993 13.0169C25.6234 13.1969 26.3211 13.3119 26.9551 13.5894C31.2474 15.4706 35.5265 17.3844 39.808 19.2906C40.6321 19.6581 41.0543 20.2406 40.8258 20.8844C40.6886 21.2719 40.3686 21.7181 40.0209 21.8756C35.5698 23.8981 31.1043 25.8856 26.6291 27.8506C25.4958 28.3481 24.3061 28.3231 23.174 27.8231C18.7385 25.8669 14.3151 23.8819 9.88561 21.9106C9.33343 21.6656 9.00621 21.2494 9.01583 20.6194C9.02546 20.0169 9.35508 19.6181 9.87959 19.3844C14.3271 17.4044 18.771 15.4144 23.227 13.4569C23.7491 13.2269 24.3434 13.1731 24.993 13.0156V13.0169Z" fill="#F4FFF7"/>
<path d="M13.71 24.9598C15.304 25.6635 16.8823 26.3598 18.4594 27.056C19.8393 27.6648 21.2179 28.2773 22.5978 28.8835C24.1497 29.566 25.71 29.5723 27.2606 28.8935C30.0228 27.6835 32.7788 26.4573 35.5385 25.2385C35.7527 25.1435 35.9692 25.0585 36.3879 24.8848C36.2736 26.916 36.2531 28.8035 36.0306 30.6635C35.9031 31.7223 35.2703 32.6485 34.4462 33.316C32.033 35.271 29.3334 36.5648 26.2585 36.8773C22.2549 37.2835 18.7927 35.8185 15.6264 33.4323C14.8011 32.8098 14.2429 31.9373 13.9253 30.9173C13.8459 30.661 13.722 30.401 13.7196 30.141C13.7015 28.4423 13.71 26.7423 13.71 24.9598Z" fill="#F4FFF7"/>
<path d="M40.2468 26.6437C40.2468 27.4324 40.2492 28.2212 40.2468 29.0112C40.2444 29.4549 40.1831 29.8799 39.6249 29.8737C39.1016 29.8674 39.0486 29.4749 39.0498 29.0449C39.0546 27.4249 39.0546 25.8062 39.0498 24.1862C39.0486 23.7562 39.1088 23.3637 39.6249 23.3537C40.1819 23.3437 40.2444 23.7699 40.2468 24.2149C40.2504 25.0249 40.2468 25.8349 40.2468 26.6437Z" fill="#F4FFF7"/>
</g>
<path d="M24.993 13.0169C25.6234 13.1969 26.3211 13.3119 26.9551 13.5894C31.2474 15.4706 35.5265 17.3844 39.808 19.2906C40.6321 19.6581 41.0543 20.2406 40.8258 20.8844C40.6886 21.2719 40.3686 21.7181 40.0209 21.8756C35.5698 23.8981 31.1043 25.8856 26.6291 27.8506C25.4958 28.3481 24.3061 28.3231 23.174 27.8231C18.7385 25.8669 14.3151 23.8819 9.88561 21.9106C9.33343 21.6656 9.00621 21.2494 9.01583 20.6194C9.02546 20.0169 9.35508 19.6181 9.87959 19.3844C14.3271 17.4044 18.771 15.4144 23.227 13.4569C23.7491 13.2269 24.3434 13.1731 24.993 13.0156V13.0169Z" fill="#F4FFF7"/>
<path d="M13.71 24.9598C15.304 25.6635 16.8823 26.3598 18.4594 27.056C19.8393 27.6648 21.2179 28.2773 22.5978 28.8835C24.1497 29.566 25.71 29.5723 27.2606 28.8935C30.0228 27.6835 32.7788 26.4573 35.5385 25.2385C35.7527 25.1435 35.9692 25.0585 36.3879 24.8848C36.2736 26.916 36.2531 28.8035 36.0306 30.6635C35.9031 31.7223 35.2703 32.6485 34.4462 33.316C32.033 35.271 29.3334 36.5648 26.2585 36.8773C22.2549 37.2835 18.7927 35.8185 15.6264 33.4323C14.8011 32.8098 14.2429 31.9373 13.9253 30.9173C13.8459 30.661 13.722 30.401 13.7196 30.141C13.7015 28.4423 13.71 26.7423 13.71 24.9598Z" fill="#F4FFF7"/>
<path d="M40.2468 26.6437C40.2468 27.4324 40.2492 28.2212 40.2468 29.0112C40.2444 29.4549 40.1831 29.8799 39.6249 29.8737C39.1016 29.8674 39.0486 29.4749 39.0498 29.0449C39.0546 27.4249 39.0546 25.8062 39.0498 24.1862C39.0486 23.7562 39.1088 23.3637 39.6249 23.3537C40.1819 23.3437 40.2444 23.7699 40.2468 24.2149C40.2504 25.0249 40.2468 25.8349 40.2468 26.6437Z" fill="#F4FFF7"/>
<defs>
<filter id="filter0_f_59_819" x="2" y="1" width="46" height="48" filterUnits="userSpaceOnUse" color-interpolation-filters="sRGB">
<feFlood flood-opacity="0" result="BackgroundImageFix"/>
<feBlend mode="normal" in="SourceGraphic" in2="BackgroundImageFix" result="shape"/>
<feGaussianBlur stdDeviation="3.5" result="effect1_foregroundBlur_59_819"/>
</filter>
<linearGradient id="paint0_linear_59_819" x1="4.655" y1="0.898333" x2="55.3628" y2="15.7871" gradientUnits="userSpaceOnUse">
<stop stop-color="white" stop-opacity="0.7"/>
<stop offset="1" stop-color="white" stop-opacity="0.4"/>
</linearGradient>
</defs>
</svg>
