<svg width="49" height="49" viewBox="0 0 49 49" fill="none" xmlns="http://www.w3.org/2000/svg">
<rect width="49" height="49" rx="24.5" fill="#F53B00"/>
<rect x="0.7" y="0.7" width="47.6" height="47.6" rx="23.8" stroke="url(#paint0_linear_59_830)" stroke-opacity="0.3" stroke-width="1.4"/>
<g opacity="0.25" filter="url(#filter0_f_59_830)">
<path d="M31.6665 13.4535C33.6775 14.6147 35.3504 16.2809 36.5196 18.2872C37.6888 20.2936 38.3137 22.5705 38.3324 24.8926C38.3512 27.2147 37.7631 29.5015 36.6265 31.5264C35.4899 33.5514 33.8442 35.2445 31.8522 36.4379C29.8602 37.6314 27.591 38.2839 25.2693 38.3309C22.9476 38.3779 20.6539 37.8177 18.6152 36.7058C16.5766 35.5939 14.8637 33.9689 13.6461 31.9915C12.4285 30.0142 11.7484 27.7531 11.6732 25.4322L11.6665 25.0002L11.6732 24.5682C11.7478 22.2655 12.4179 20.0215 13.618 18.0548C14.8181 16.0882 16.5074 14.4661 18.521 13.3467C20.5347 12.2273 22.804 11.6487 25.1078 11.6674C27.4117 11.6862 29.6713 12.3015 31.6665 13.4535ZM24.9998 17.0002C24.6733 17.0002 24.3581 17.1201 24.114 17.3371C23.87 17.5541 23.714 17.8532 23.6758 18.1775L23.6665 18.3335V25.0002L23.6785 25.1748C23.7089 25.4062 23.7995 25.6255 23.9412 25.8108L24.0572 25.9442L28.0572 29.9442L28.1825 30.0535C28.4163 30.2349 28.7039 30.3334 28.9998 30.3334C29.2958 30.3334 29.5833 30.2349 29.8172 30.0535L29.9425 29.9428L30.0532 29.8175C30.2346 29.5837 30.3331 29.2961 30.3331 29.0002C30.3331 28.7042 30.2346 28.4167 30.0532 28.1828L29.9425 28.0575L26.3332 24.4468V18.3335L26.3238 18.1775C26.2856 17.8532 26.1297 17.5541 25.8857 17.3371C25.6416 17.1201 25.3264 17.0002 24.9998 17.0002Z" fill="#F4FFF7"/>
</g>
<path d="M31.6665 13.4535C33.6775 14.6147 35.3504 16.2809 36.5196 18.2872C37.6888 20.2936 38.3137 22.5705 38.3324 24.8926C38.3512 27.2147 37.7631 29.5015 36.6265 31.5264C35.4899 33.5514 33.8442 35.2445 31.8522 36.4379C29.8602 37.6314 27.591 38.2839 25.2693 38.3309C22.9476 38.3779 20.6539 37.8177 18.6152 36.7058C16.5766 35.5939 14.8637 33.9689 13.6461 31.9915C12.4285 30.0142 11.7484 27.7531 11.6732 25.4322L11.6665 25.0002L11.6732 24.5682C11.7478 22.2655 12.4179 20.0215 13.618 18.0548C14.8181 16.0882 16.5074 14.4661 18.521 13.3467C20.5347 12.2273 22.804 11.6487 25.1078 11.6674C27.4117 11.6862 29.6713 12.3015 31.6665 13.4535ZM24.9998 17.0002C24.6733 17.0002 24.3581 17.1201 24.114 17.3371C23.87 17.5541 23.714 17.8532 23.6758 18.1775L23.6665 18.3335V25.0002L23.6785 25.1748C23.7089 25.4062 23.7995 25.6255 23.9412 25.8108L24.0572 25.9442L28.0572 29.9442L28.1825 30.0535C28.4163 30.2349 28.7039 30.3334 28.9998 30.3334C29.2958 30.3334 29.5833 30.2349 29.8172 30.0535L29.9425 29.9428L30.0532 29.8175C30.2346 29.5837 30.3331 29.2961 30.3331 29.0002C30.3331 28.7042 30.2346 28.4167 30.0532 28.1828L29.9425 28.0575L26.3332 24.4468V18.3335L26.3238 18.1775C26.2856 17.8532 26.1297 17.5541 25.8857 17.3371C25.6416 17.1201 25.3264 17.0002 24.9998 17.0002Z" fill="#F4FFF7"/>
<defs>
<filter id="filter0_f_59_830" x="2" y="2" width="46" height="46" filterUnits="userSpaceOnUse" color-interpolation-filters="sRGB">
<feFlood flood-opacity="0" result="BackgroundImageFix"/>
<feBlend mode="normal" in="SourceGraphic" in2="BackgroundImageFix" result="shape"/>
<feGaussianBlur stdDeviation="3.5" result="effect1_foregroundBlur_59_830"/>
</filter>
<linearGradient id="paint0_linear_59_830" x1="4.655" y1="0.898333" x2="55.3628" y2="15.7871" gradientUnits="userSpaceOnUse">
<stop stop-color="white" stop-opacity="0.7"/>
<stop offset="1" stop-color="white" stop-opacity="0.4"/>
</linearGradient>
</defs>
</svg>
