<svg width="49" height="49" viewBox="0 0 49 49" fill="none" xmlns="http://www.w3.org/2000/svg">
<rect width="49" height="49" rx="24.5" fill="#F53B00"/>
<rect x="0.7" y="0.7" width="47.6" height="47.6" rx="23.8" stroke="url(#paint0_linear_2001_4)" stroke-opacity="0.3" stroke-width="1.4"/>
<g opacity="0.25" filter="url(#filter0_f_2001_4)">
<path d="M28.42 14.158L37.8014 29.7834C39.1496 32.0276 38.4874 34.9802 36.3216 36.3774C35.5951 36.849 34.7475 37.1 33.8814 37.0998H15.1172C12.5678 37.0998 10.5 34.9578 10.5 32.3132C10.5 31.4186 10.7422 30.5436 11.1972 29.7834L20.58 14.158C21.9268 11.9138 24.7744 11.2264 26.9402 12.6236C27.5394 13.01 28.0462 13.535 28.42 14.158ZM24.5 31.4998C24.8713 31.4998 25.2274 31.3523 25.4899 31.0898C25.7525 30.8272 25.9 30.4711 25.9 30.0998C25.9 29.7285 25.7525 29.3724 25.4899 29.1099C25.2274 28.8473 24.8713 28.6998 24.5 28.6998C24.1287 28.6998 23.7726 28.8473 23.5101 29.1099C23.2475 29.3724 23.1 29.7285 23.1 30.0998C23.1 30.4711 23.2475 30.8272 23.5101 31.0898C23.7726 31.3523 24.1287 31.4998 24.5 31.4998ZM24.5 18.8998C24.1287 18.8998 23.7726 19.0473 23.5101 19.3099C23.2475 19.5724 23.1 19.9285 23.1 20.2998V25.8998C23.1 26.2711 23.2475 26.6272 23.5101 26.8898C23.7726 27.1523 24.1287 27.2998 24.5 27.2998C24.8713 27.2998 25.2274 27.1523 25.4899 26.8898C25.7525 26.6272 25.9 26.2711 25.9 25.8998V20.2998C25.9 19.9285 25.7525 19.5724 25.4899 19.3099C25.2274 19.0473 24.8713 18.8998 24.5 18.8998Z" fill="#F4FFF7"/>
</g>
<path d="M28.42 13.458L37.8014 29.0834C39.1496 31.3276 38.4874 34.2802 36.3216 35.6774C35.5951 36.149 34.7475 36.3999 33.8814 36.3998H15.1172C12.5678 36.3998 10.5 34.2578 10.5 31.6132C10.5 30.7186 10.7422 29.8436 11.1972 29.0834L20.58 13.458C21.9268 11.2138 24.7744 10.5264 26.9402 11.9236C27.5394 12.31 28.0462 12.835 28.42 13.458ZM24.5 30.7998C24.8713 30.7998 25.2274 30.6523 25.4899 30.3897C25.7525 30.1271 25.9 29.7711 25.9 29.3998C25.9 29.0284 25.7525 28.6724 25.4899 28.4098C25.2274 28.1473 24.8713 27.9998 24.5 27.9998C24.1287 27.9998 23.7726 28.1473 23.5101 28.4098C23.2475 28.6724 23.1 29.0284 23.1 29.3998C23.1 29.7711 23.2475 30.1271 23.5101 30.3897C23.7726 30.6523 24.1287 30.7998 24.5 30.7998ZM24.5 18.1998C24.1287 18.1998 23.7726 18.3473 23.5101 18.6098C23.2475 18.8724 23.1 19.2284 23.1 19.5998V25.1998C23.1 25.5711 23.2475 25.9272 23.5101 26.1897C23.7726 26.4523 24.1287 26.5998 24.5 26.5998C24.8713 26.5998 25.2274 26.4523 25.4899 26.1897C25.7525 25.9272 25.9 25.5711 25.9 25.1998V19.5998C25.9 19.2284 25.7525 18.8724 25.4899 18.6098C25.2274 18.3473 24.8713 18.1998 24.5 18.1998Z" fill="#F4FFF7"/>
<defs>
<filter id="filter0_f_2001_4" x="3.5" y="4.90002" width="42" height="39.1998" filterUnits="userSpaceOnUse" color-interpolation-filters="sRGB">
<feFlood flood-opacity="0" result="BackgroundImageFix"/>
<feBlend mode="normal" in="SourceGraphic" in2="BackgroundImageFix" result="shape"/>
<feGaussianBlur stdDeviation="3.5" result="effect1_foregroundBlur_2001_4"/>
</filter>
<linearGradient id="paint0_linear_2001_4" x1="4.655" y1="0.898333" x2="55.3628" y2="15.7871" gradientUnits="userSpaceOnUse">
<stop stop-color="white" stop-opacity="0.7"/>
<stop offset="1" stop-color="white" stop-opacity="0.4"/>
</linearGradient>
</defs>
</svg>
