<svg width="32" height="32" viewBox="0 0 32 32" fill="none" xmlns="http://www.w3.org/2000/svg">
<path d="M15.9998 12.0063C17.4142 12.0063 18.7708 12.5682 19.771 13.5684C20.7712 14.5686 21.3331 15.9252 21.3331 17.3397C21.3331 18.7542 20.7712 20.1107 19.771 21.1109C18.7708 22.1111 17.4142 22.673 15.9998 22.673C14.5853 22.673 13.2287 22.1111 12.2285 21.1109C11.2283 20.1107 10.6664 18.7542 10.6664 17.3397C10.6664 15.9252 11.2283 14.5686 12.2285 13.5684C13.2287 12.5682 14.5853 12.0063 15.9998 12.0063ZM15.9998 14.0063C15.1157 14.0063 14.2679 14.3575 13.6427 14.9827C13.0176 15.6078 12.6664 16.4556 12.6664 17.3397C12.6664 18.2237 13.0176 19.0716 13.6427 19.6967C14.2679 20.3218 15.1157 20.673 15.9998 20.673C16.8838 20.673 17.7317 20.3218 18.3568 19.6967C18.9819 19.0716 19.3331 18.2237 19.3331 17.3397C19.3331 16.4556 18.9819 15.6078 18.3568 14.9827C17.7317 14.3575 16.8838 14.0063 15.9998 14.0063ZM15.9998 7.33301C22.1504 7.33301 27.4611 11.533 28.9344 17.4183C28.999 17.6756 28.9587 17.948 28.8224 18.1755C28.6861 18.403 28.465 18.5671 28.2078 18.6317C27.9505 18.6962 27.6781 18.6559 27.4506 18.5196C27.2231 18.3834 27.059 18.1623 26.9944 17.905C26.3771 15.4563 24.96 13.2838 22.9678 11.7319C20.9756 10.1799 18.5223 9.33751 15.997 9.33812C13.4717 9.33874 11.0188 10.1824 9.0274 11.7352C7.03596 13.2881 5.6199 15.4613 5.00376 17.9103C4.97198 18.0378 4.9154 18.1578 4.83726 18.2634C4.75912 18.369 4.66095 18.4582 4.54834 18.5258C4.43573 18.5935 4.3109 18.6383 4.18097 18.6577C4.05104 18.6771 3.91856 18.6708 3.79109 18.639C3.66362 18.6072 3.54366 18.5507 3.43806 18.4725C3.33245 18.3944 3.24327 18.2962 3.17561 18.1836C3.10795 18.071 3.06313 17.9461 3.04371 17.8162C3.02429 17.6863 3.03065 17.5538 3.06243 17.4263C3.78488 14.5424 5.45049 11.9826 7.79457 10.1538C10.1386 8.32507 13.0267 7.33219 15.9998 7.33301Z" fill="#F4FFF7"/>
</svg>
