<svg width="33" height="33" viewBox="0 0 33 33" fill="none" xmlns="http://www.w3.org/2000/svg">
<g opacity="0.25" filter="url(#filter0_f_2001_195)">
<path fill-rule="evenodd" clip-rule="evenodd" d="M24.7582 4.09011L25.0981 4.13278C25.9968 4.25678 27.1861 4.42345 27.8595 5.09811C28.4115 5.64878 28.6235 6.54478 28.7501 7.34478L28.8248 7.85945C28.9928 9.07278 29.0368 10.6621 28.7501 12.4274C28.1848 15.9114 26.3301 20.0688 21.6728 23.2874C21.6475 23.5381 21.6461 23.7914 21.6515 24.0448L21.6648 24.4234C21.6861 25.0061 21.7075 25.5888 21.5448 26.1541C21.2915 27.0341 20.3888 27.6141 19.5448 28.0301L19.1315 28.2261L18.5981 28.4608C17.6008 28.8848 16.2541 29.3194 15.4101 28.4741C14.9035 27.9688 14.6955 27.2274 14.5261 26.4901L14.4635 26.2141C14.3918 25.8659 14.3028 25.5215 14.1968 25.1821C14.1301 24.9866 14.0581 24.7888 13.9808 24.5888C13.8957 24.6933 13.8054 24.7934 13.7101 24.8888C13.2501 25.3488 12.5635 25.6701 11.9981 25.8954C11.3808 26.1394 10.6821 26.3528 10.0355 26.5288L9.70348 26.6168L9.06748 26.7754L8.49148 26.9088L7.80215 27.0554L7.37148 27.1394C7.1567 27.1792 6.93546 27.1661 6.72685 27.1013C6.51825 27.0365 6.32853 26.922 6.17407 26.7675C6.01961 26.6131 5.90505 26.4233 5.84025 26.2147C5.77546 26.0061 5.76238 25.7849 5.80215 25.5701L5.91682 24.9954L6.12215 24.0648L6.28748 23.3848L6.41282 22.9048C6.58882 22.2594 6.80215 21.5608 7.04748 20.9448C7.27148 20.3781 7.59282 19.6914 8.05282 19.2314L8.15948 19.1288L8.07415 19.0941C7.84625 19.0076 7.61545 18.9288 7.38215 18.8581L7.01282 18.7448C6.08748 18.4648 5.09815 18.1634 4.48348 17.5474C3.73682 16.8021 3.98882 15.6674 4.34882 14.7234L4.49548 14.3581L4.73148 13.8248L4.92748 13.4114C5.34348 12.5688 5.92348 11.6661 6.80348 11.4128C7.27015 11.2794 7.75548 11.2714 8.24348 11.2848L8.53682 11.2941C8.91815 11.3074 9.29815 11.3221 9.67015 11.2861C12.8888 6.62745 17.0461 4.77278 20.5301 4.20745C21.9278 3.97821 23.35 3.93875 24.7582 4.09011ZM11.6755 20.9901C11.4657 20.8346 11.2149 20.7442 10.9542 20.7299C10.6934 20.7157 10.4343 20.7784 10.2088 20.9101L10.0622 21.0088L9.93815 21.1194L9.77148 21.3301C9.42482 21.8314 9.22748 22.5248 9.07415 23.1728L8.93015 23.7968L8.86215 24.0808L9.11682 24.0194L9.67415 23.8914C10.4448 23.7114 11.2995 23.4781 11.8248 23.0048C12.0532 22.7765 12.191 22.473 12.2126 22.1508C12.2342 21.8286 12.1381 21.5095 11.9422 21.2528L11.8328 21.1274L11.8008 21.0968L11.6755 20.9901ZM21.2528 11.6914C21.0052 11.4438 20.7113 11.2473 20.3878 11.1132C20.0642 10.9791 19.7175 10.9101 19.3673 10.91C19.0171 10.91 18.6703 10.9789 18.3467 11.1129C18.0232 11.2468 17.7292 11.4432 17.4815 11.6908C17.2338 11.9384 17.0373 12.2323 16.9033 12.5558C16.7692 12.8793 16.7001 13.2261 16.7001 13.5763C16.7 13.9265 16.7689 14.2733 16.9029 14.5969C17.0369 14.9204 17.2332 15.2144 17.4808 15.4621C17.9808 15.9623 18.6591 16.2434 19.3663 16.2435C20.0736 16.2436 20.7519 15.9628 21.2521 15.4628C21.7523 14.9628 22.0334 14.2845 22.0336 13.5773C22.0337 12.87 21.7528 12.1916 21.2528 11.6914Z" fill="#F4FFF7"/>
</g>
<path fill-rule="evenodd" clip-rule="evenodd" d="M24.7582 4.09011L25.0981 4.13278C25.9968 4.25678 27.1861 4.42345 27.8595 5.09811C28.4115 5.64878 28.6235 6.54478 28.7501 7.34478L28.8248 7.85945C28.9928 9.07278 29.0368 10.6621 28.7501 12.4274C28.1848 15.9114 26.3301 20.0688 21.6728 23.2874C21.6475 23.5381 21.6461 23.7914 21.6515 24.0448L21.6648 24.4234C21.6861 25.0061 21.7075 25.5888 21.5448 26.1541C21.2915 27.0341 20.3888 27.6141 19.5448 28.0301L19.1315 28.2261L18.5981 28.4608C17.6008 28.8848 16.2541 29.3194 15.4101 28.4741C14.9035 27.9688 14.6955 27.2274 14.5261 26.4901L14.4635 26.2141C14.3918 25.8659 14.3028 25.5215 14.1968 25.1821C14.1301 24.9866 14.0581 24.7888 13.9808 24.5888C13.8957 24.6933 13.8054 24.7934 13.7101 24.8888C13.2501 25.3488 12.5635 25.6701 11.9981 25.8954C11.3808 26.1394 10.6821 26.3528 10.0355 26.5288L9.70348 26.6168L9.06748 26.7754L8.49148 26.9088L7.80215 27.0554L7.37148 27.1394C7.1567 27.1792 6.93546 27.1661 6.72685 27.1013C6.51825 27.0365 6.32853 26.922 6.17407 26.7675C6.01961 26.6131 5.90505 26.4233 5.84025 26.2147C5.77546 26.0061 5.76238 25.7849 5.80215 25.5701L5.91682 24.9954L6.12215 24.0648L6.28748 23.3848L6.41282 22.9048C6.58882 22.2594 6.80215 21.5608 7.04748 20.9448C7.27148 20.3781 7.59282 19.6914 8.05282 19.2314L8.15948 19.1288L8.07415 19.0941C7.84625 19.0076 7.61545 18.9288 7.38215 18.8581L7.01282 18.7448C6.08748 18.4648 5.09815 18.1634 4.48348 17.5474C3.73682 16.8021 3.98882 15.6674 4.34882 14.7234L4.49548 14.3581L4.73148 13.8248L4.92748 13.4114C5.34348 12.5688 5.92348 11.6661 6.80348 11.4128C7.27015 11.2794 7.75548 11.2714 8.24348 11.2848L8.53682 11.2941C8.91815 11.3074 9.29815 11.3221 9.67015 11.2861C12.8888 6.62745 17.0461 4.77278 20.5301 4.20745C21.9278 3.97821 23.35 3.93875 24.7582 4.09011ZM11.6755 20.9901C11.4657 20.8346 11.2149 20.7442 10.9542 20.7299C10.6934 20.7157 10.4343 20.7784 10.2088 20.9101L10.0622 21.0088L9.93815 21.1194L9.77148 21.3301C9.42482 21.8314 9.22748 22.5248 9.07415 23.1728L8.93015 23.7968L8.86215 24.0808L9.11682 24.0194L9.67415 23.8914C10.4448 23.7114 11.2995 23.4781 11.8248 23.0048C12.0532 22.7765 12.191 22.473 12.2126 22.1508C12.2342 21.8286 12.1381 21.5095 11.9422 21.2528L11.8328 21.1274L11.8008 21.0968L11.6755 20.9901ZM21.2528 11.6914C21.0052 11.4438 20.7113 11.2473 20.3878 11.1132C20.0642 10.9791 19.7175 10.9101 19.3673 10.91C19.0171 10.91 18.6703 10.9789 18.3467 11.1129C18.0232 11.2468 17.7292 11.4432 17.4815 11.6908C17.2338 11.9384 17.0373 12.2323 16.9033 12.5558C16.7692 12.8793 16.7001 13.2261 16.7001 13.5763C16.7 13.9265 16.7689 14.2733 16.9029 14.5969C17.0369 14.9204 17.2332 15.2144 17.4808 15.4621C17.9808 15.9623 18.6591 16.2434 19.3663 16.2435C20.0736 16.2436 20.7519 15.9628 21.2521 15.4628C21.7523 14.9628 22.0334 14.2845 22.0336 13.5773C22.0337 12.87 21.7528 12.1916 21.2528 11.6914Z" fill="#F4FFF7"/>
<defs>
<filter id="filter0_f_2001_195" x="0" y="0" width="32.958" height="32.9575" filterUnits="userSpaceOnUse" color-interpolation-filters="sRGB">
<feFlood flood-opacity="0" result="BackgroundImageFix"/>
<feBlend mode="normal" in="SourceGraphic" in2="BackgroundImageFix" result="shape"/>
<feGaussianBlur stdDeviation="2" result="effect1_foregroundBlur_2001_195"/>
</filter>
</defs>
</svg>
