<svg width="27" height="22" viewBox="0 0 27 22" fill="none" xmlns="http://www.w3.org/2000/svg">
<path d="M0.0133333 3.83133C0.0976 2.78768 0.571709 1.81401 1.34132 1.10406C2.11093 0.39412 3.11962 -4.58319e-05 4.16667 3.9971e-09H22.5C23.5564 -4.44483e-05 24.5734 0.401175 25.3452 1.12249C26.117 1.8438 26.586 2.83135 26.6573 3.88533L13.3347 10.9L0.0133333 3.83133ZM0 5.71133V17.1667C0 18.2717 0.438987 19.3315 1.22039 20.1129C2.00179 20.8943 3.0616 21.3333 4.16667 21.3333H22.5C23.6051 21.3333 24.6649 20.8943 25.4463 20.1129C26.2277 19.3315 26.6667 18.2717 26.6667 17.1667V5.764L13.7213 12.58C13.6012 12.6432 13.4675 12.6761 13.3318 12.6759C13.1961 12.6756 13.0625 12.6423 12.9427 12.5787L0 5.71133Z" fill="#F4FFF7"/>
</svg>
