<svg width="32" height="32" viewBox="0 0 32 32" fill="none" xmlns="http://www.w3.org/2000/svg">
<path d="M12.212 26.9795C11.9303 26.9795 11.7449 26.9795 11.5596 26.9795C8.50558 26.9795 5.4516 26.9817 2.39658 26.9795C0.921888 26.9785 0.0923737 26.1285 0.0923737 24.6125C0.0903025 17.5402 0.0903025 10.4678 0.0923737 3.39444C0.0923737 1.88593 0.930173 1.01997 2.40176 1.01997C11.4612 1.01678 20.5196 1.01678 29.579 1.01997C31.0816 1.01997 31.9857 1.9604 31.9867 3.51146C31.9888 10.5306 31.9888 17.5498 31.9867 24.57C31.9867 26.0976 31.1251 26.9785 29.6442 26.9795C27.0045 26.9817 24.3637 26.9795 21.724 26.9795C21.5386 26.9795 21.3532 26.9795 21.0788 26.9795C21.4236 27.9221 21.7322 28.7955 22.0719 29.6572C22.1082 29.7508 22.3143 29.8178 22.4437 29.8221C23.0122 29.8402 23.5818 29.8295 24.1514 29.8295C24.9747 29.8295 25.2264 29.9476 25.1818 30.3668C25.1042 31.0902 24.5304 30.8668 24.1286 30.8678C19.1246 30.8806 14.1206 30.8764 9.11658 30.8764C8.97885 30.8764 8.84008 30.8785 8.70234 30.8753C8.37509 30.8678 8.10066 30.754 8.09548 30.3742C8.08927 29.971 8.36266 29.8327 8.71684 29.8317C9.40655 29.8295 10.0973 29.8189 10.787 29.8359C11.0666 29.8434 11.2147 29.771 11.312 29.4742C11.5803 28.6604 11.8909 27.8615 12.213 26.9806L12.212 26.9795ZM15.9878 2.06359C11.484 2.06359 6.98014 2.06359 2.47529 2.06359C1.44797 2.06359 1.06791 2.44763 1.06687 3.50082C1.0648 10.5029 1.0648 17.5051 1.06687 24.5083C1.06687 25.5444 1.48111 25.9742 2.47322 25.9753C11.4985 25.9764 20.5237 25.9764 29.5489 25.9753C30.5079 25.9753 30.9304 25.537 30.9315 24.537C30.9346 17.5168 30.9335 10.4966 30.9315 3.47635C30.9315 2.4604 30.5379 2.06465 29.551 2.06465C25.0296 2.06465 20.5082 2.06465 15.9867 2.06465L15.9878 2.06359ZM21.0011 29.8072C20.6759 28.9104 20.3746 28.0487 20.039 27.1998C19.9955 27.0891 19.777 26.9902 19.6393 26.9891C17.6385 26.9753 15.6377 26.9764 13.637 26.9881C13.4909 26.9881 13.2538 27.0657 13.2124 27.171C12.8737 28.0295 12.5713 28.904 12.2451 29.8072H21.0001H21.0011Z" fill="#F4FFF7"/>
<path d="M16.0019 3.73926C20.1257 3.73926 24.2505 3.73926 28.3742 3.73926C29.182 3.73926 29.298 3.86053 29.298 4.69245C29.298 10.0105 29.298 15.3286 29.298 20.6467C29.298 21.4786 29.2213 21.5584 28.4094 21.5584C20.1267 21.5584 11.8429 21.5584 3.56023 21.5584C2.78042 21.5584 2.70068 21.4744 2.70068 20.6722C2.70068 15.3361 2.70068 10.001 2.70068 4.66479C2.70068 3.80947 2.77007 3.73926 3.62858 3.73926C7.75233 3.73926 11.8771 3.73926 16.0009 3.73926H16.0019ZM28.2613 4.78075H3.75596V20.5456H28.2613V4.78075Z" fill="#F4FFF7"/>
<path d="M12.1993 10.5024C12.1051 10.2034 11.9673 9.91087 11.9249 9.60449C11.8224 8.8598 12.19 8.163 12.8114 7.83108C13.412 7.51087 14.1773 7.6098 14.6972 8.0747C15.215 8.53746 15.4304 9.33108 15.1715 10.0141C15.0804 10.2545 15.0565 10.4087 15.2274 10.6215C15.9409 11.5098 16.6286 12.4194 17.3421 13.3077C17.4415 13.4311 17.6404 13.5577 17.7812 13.5438C18.6428 13.4641 18.6418 13.4502 19.4796 13.8524C20.7182 12.6619 21.9661 11.4673 23.2036 10.2598C23.2947 10.1704 23.3579 9.98746 23.3434 9.85874C23.2347 8.89704 23.5847 8.18853 24.3521 7.87363C25.0563 7.58427 25.8951 7.83214 26.3415 8.46087C26.7764 9.0747 26.7516 9.99598 26.2824 10.5875C25.7667 11.2375 24.9724 11.3885 24.1305 10.997C24.0839 10.9758 24.0362 10.9555 23.942 10.9151C22.8805 11.9758 21.8076 13.0492 20.7337 14.1215C20.3319 14.5226 19.9818 14.8811 19.9477 15.5694C19.9011 16.5247 18.8717 17.1555 17.9676 16.9545C17.0118 16.7417 16.4546 15.7268 16.6897 14.6832C16.7321 14.4949 16.7125 14.2215 16.6058 14.0779C15.9264 13.1619 15.2253 12.2619 14.5025 11.3832C14.3772 11.2311 14.1162 11.1694 13.906 11.1247C13.2132 10.979 12.7803 11.397 12.3298 11.8641C11.2621 12.9726 10.1571 14.0428 9.05732 15.1194C8.84916 15.3236 8.78496 15.4832 8.88851 15.7992C9.20541 16.7673 8.65861 17.7928 7.75661 18.0226C6.74379 18.2811 5.85939 17.6853 5.65745 16.6087C5.4524 15.5141 6.53771 14.4045 7.6313 14.6449C7.96269 14.7183 8.13771 14.6364 8.33861 14.413C9.5658 13.0438 10.8002 11.6821 12.0316 10.3173L12.2014 10.4992L12.1993 10.5024ZM24.9517 10.1247C25.3369 10.1226 25.6611 9.77576 25.6559 9.37044C25.6507 8.98427 25.3442 8.67789 24.962 8.67576C24.5747 8.67363 24.2402 9.02363 24.2527 9.41832C24.264 9.79066 24.5975 10.1268 24.9517 10.1236V10.1247ZM7.98133 16.3875C7.98651 15.9747 7.66237 15.6087 7.2968 15.6151C6.93641 15.6215 6.6133 15.9598 6.62573 16.3396C6.64023 16.7715 6.8691 17.0268 7.28851 17.063C7.6779 17.096 7.97615 16.7917 7.98133 16.3875ZM14.3026 9.36725C14.2954 8.96832 13.9961 8.66619 13.6129 8.67044C13.2049 8.6747 12.916 8.99597 12.9294 9.43108C12.9429 9.85023 13.2194 10.1055 13.6378 10.0853C14.0334 10.0662 14.3109 9.76725 14.3026 9.36832V9.36725ZM18.9784 15.1843C18.9846 14.7885 18.6822 14.4768 18.298 14.4832C17.9189 14.4896 17.6031 14.8098 17.6031 15.1875C17.6031 15.5736 17.92 15.8992 18.2907 15.8949C18.6677 15.8896 18.9721 15.5758 18.9784 15.1843Z" fill="#F4FFF7"/>
</svg>
