<svg width="34" height="34" viewBox="0 0 34 34" fill="none" xmlns="http://www.w3.org/2000/svg">
<g opacity="0.25" filter="url(#filter0_f_2001_852)">
<path d="M13.7227 4C14.5739 4 15.3611 4.2752 15.9995 4.7424V10.4H15.0603C14.8716 9.86623 14.5003 9.41636 14.0119 9.1299C13.5236 8.84343 12.9497 8.73883 12.3917 8.83456C11.8338 8.9303 11.3276 9.22022 10.9626 9.65307C10.5977 10.0859 10.3976 10.6339 10.3976 11.2C10.3976 11.7661 10.5977 12.3141 10.9626 12.7469C11.3276 13.1798 11.8338 13.4697 12.3917 13.5654C12.9497 13.6612 13.5236 13.5566 14.0119 13.2701C14.5003 12.9836 14.8716 12.5338 15.0603 12H15.9995V28.3712C15.1515 29.1344 14.0315 29.6 12.7995 29.6C11.6409 29.5993 10.5216 29.1796 9.64819 28.4182C8.77479 27.6569 8.20627 26.6053 8.04753 25.4576C7.15061 25.2549 6.32361 24.8176 5.6511 24.1905C4.97858 23.5634 4.48468 22.7689 4.2199 21.8883C3.95512 21.0077 3.92896 20.0726 4.14409 19.1786C4.35923 18.2846 4.80793 17.4637 5.44433 16.8H9.59953C9.81171 16.8 10.0152 16.8843 10.1652 17.0343C10.3152 17.1843 10.3995 17.3878 10.3995 17.6V18.5392C9.86576 18.7279 9.41589 19.0993 9.12943 19.5876C8.84297 20.0759 8.73836 20.6498 8.8341 21.2078C8.92983 21.7658 9.21975 22.272 9.65261 22.6369C10.0855 23.0018 10.6334 23.2019 11.1995 23.2019C11.7657 23.2019 12.3136 23.0018 12.7465 22.6369C13.1793 22.272 13.4692 21.7658 13.565 21.2078C13.6607 20.6498 13.5561 20.0759 13.2696 19.5876C12.9832 19.0993 12.5333 18.7279 11.9995 18.5392V17.6C11.9995 16.9635 11.7467 16.353 11.2966 15.9029C10.8465 15.4529 10.2361 15.2 9.59953 15.2H6.41073C5.88536 14.5101 5.60043 13.6671 5.59953 12.8V12.4832C5.59953 10.4256 7.05233 8.6528 9.06993 8.2496L9.71953 8.1184L9.91953 7.1168C10.0956 6.23778 10.5707 5.44689 11.2641 4.87865C11.9574 4.31042 12.8263 3.99993 13.7227 4ZM19.8763 4C21.7243 4 23.3163 5.3056 23.6795 7.1168L23.8795 8.1184L24.5291 8.2496C25.5076 8.44586 26.3879 8.97479 27.0205 9.74655C27.6531 10.5183 27.9991 11.4853 27.9995 12.4832V12.8C27.9984 13.3525 27.8827 13.8988 27.6599 14.4043C27.4372 14.9099 27.1121 15.3639 26.7051 15.7376C27.6675 16.2125 28.459 16.9739 28.9709 17.9171C29.4827 18.8603 29.6898 19.9389 29.5635 21.0046C29.4372 22.0703 28.9837 23.0707 28.2656 23.8681C27.5474 24.6655 26.5998 25.2208 25.5531 25.4576C25.3944 26.6056 24.8256 27.6574 23.9519 28.4188C23.0782 29.1802 21.9585 29.5997 20.7995 29.6C19.5675 29.6 18.4475 29.1344 17.5995 28.3712V21.6H20.7995C21.4361 21.6 22.0465 21.3471 22.4966 20.8971C22.9467 20.447 23.1995 19.8365 23.1995 19.2V18.2592C23.7346 18.0721 24.186 17.7013 24.4736 17.2129C24.7612 16.7244 24.8664 16.1498 24.7705 15.5912C24.6746 15.0325 24.3837 14.5259 23.9497 14.1614C23.5156 13.7968 22.9664 13.5979 22.3995 13.6C21.8351 13.6023 21.2896 13.8035 20.8588 14.1681C20.428 14.5328 20.1395 15.0376 20.044 15.5938C19.9485 16.1501 20.0521 16.7222 20.3366 17.2097C20.6211 17.6971 21.0682 18.0687 21.5995 18.2592V19.2C21.5995 19.4122 21.5152 19.6157 21.3652 19.7657C21.2152 19.9157 21.0117 20 20.7995 20H17.5995V4.7424C18.2395 4.2752 19.0235 4 19.8763 4ZM11.1995 20C11.4117 20 11.6152 20.0843 11.7652 20.2343C11.9152 20.3843 11.9995 20.5878 11.9995 20.8C11.9995 21.0122 11.9152 21.2157 11.7652 21.3657C11.6152 21.5157 11.4117 21.6 11.1995 21.6C10.9874 21.6 10.7839 21.5157 10.6338 21.3657C10.4838 21.2157 10.3995 21.0122 10.3995 20.8C10.3995 20.5878 10.4838 20.3843 10.6338 20.2343C10.7839 20.0843 10.9874 20 11.1995 20ZM22.3995 15.2C22.6117 15.2 22.8152 15.2843 22.9652 15.4343C23.1152 15.5843 23.1995 15.7878 23.1995 16C23.1995 16.2122 23.1152 16.4157 22.9652 16.5657C22.8152 16.7157 22.6117 16.8 22.3995 16.8C22.1874 16.8 21.9839 16.7157 21.8338 16.5657C21.6838 16.4157 21.5995 16.2122 21.5995 16C21.5995 15.7878 21.6838 15.5843 21.8338 15.4343C21.9839 15.2843 22.1874 15.2 22.3995 15.2ZM12.7995 10.4C13.0117 10.4 13.2152 10.4843 13.3652 10.6343C13.5152 10.7843 13.5995 10.9878 13.5995 11.2C13.5995 11.4122 13.5152 11.6157 13.3652 11.7657C13.2152 11.9157 13.0117 12 12.7995 12C12.5874 12 12.3839 11.9157 12.2338 11.7657C12.0838 11.6157 11.9995 11.4122 11.9995 11.2C11.9995 10.9878 12.0838 10.7843 12.2338 10.6343C12.3839 10.4843 12.5874 10.4 12.7995 10.4Z" fill="#060712"/>
</g>
<path d="M13.7227 4C14.5739 4 15.3611 4.2752 15.9995 4.7424V10.4H15.0603C14.8716 9.86623 14.5003 9.41636 14.0119 9.1299C13.5236 8.84343 12.9497 8.73883 12.3917 8.83456C11.8338 8.9303 11.3276 9.22022 10.9626 9.65307C10.5977 10.0859 10.3976 10.6339 10.3976 11.2C10.3976 11.7661 10.5977 12.3141 10.9626 12.7469C11.3276 13.1798 11.8338 13.4697 12.3917 13.5654C12.9497 13.6612 13.5236 13.5566 14.0119 13.2701C14.5003 12.9836 14.8716 12.5338 15.0603 12H15.9995V28.3712C15.1515 29.1344 14.0315 29.6 12.7995 29.6C11.6409 29.5993 10.5216 29.1796 9.64819 28.4182C8.77479 27.6569 8.20627 26.6053 8.04753 25.4576C7.15061 25.2549 6.32361 24.8176 5.6511 24.1905C4.97858 23.5634 4.48468 22.7689 4.2199 21.8883C3.95512 21.0077 3.92896 20.0726 4.14409 19.1786C4.35923 18.2846 4.80793 17.4637 5.44433 16.8H9.59953C9.81171 16.8 10.0152 16.8843 10.1652 17.0343C10.3152 17.1843 10.3995 17.3878 10.3995 17.6V18.5392C9.86576 18.7279 9.41589 19.0993 9.12943 19.5876C8.84297 20.0759 8.73836 20.6498 8.8341 21.2078C8.92983 21.7658 9.21975 22.272 9.65261 22.6369C10.0855 23.0018 10.6334 23.2019 11.1995 23.2019C11.7657 23.2019 12.3136 23.0018 12.7465 22.6369C13.1793 22.272 13.4692 21.7658 13.565 21.2078C13.6607 20.6498 13.5561 20.0759 13.2696 19.5876C12.9832 19.0993 12.5333 18.7279 11.9995 18.5392V17.6C11.9995 16.9635 11.7467 16.353 11.2966 15.9029C10.8465 15.4529 10.2361 15.2 9.59953 15.2H6.41073C5.88536 14.5101 5.60043 13.6671 5.59953 12.8V12.4832C5.59953 10.4256 7.05233 8.6528 9.06993 8.2496L9.71953 8.1184L9.91953 7.1168C10.0956 6.23778 10.5707 5.44689 11.2641 4.87865C11.9574 4.31042 12.8263 3.99993 13.7227 4ZM19.8763 4C21.7243 4 23.3163 5.3056 23.6795 7.1168L23.8795 8.1184L24.5291 8.2496C25.5076 8.44586 26.3879 8.97479 27.0205 9.74655C27.6531 10.5183 27.9991 11.4853 27.9995 12.4832V12.8C27.9984 13.3525 27.8827 13.8988 27.6599 14.4043C27.4372 14.9099 27.1121 15.3639 26.7051 15.7376C27.6675 16.2125 28.459 16.9739 28.9709 17.9171C29.4827 18.8603 29.6898 19.9389 29.5635 21.0046C29.4372 22.0703 28.9837 23.0707 28.2656 23.8681C27.5474 24.6655 26.5998 25.2208 25.5531 25.4576C25.3944 26.6056 24.8256 27.6574 23.9519 28.4188C23.0782 29.1802 21.9585 29.5997 20.7995 29.6C19.5675 29.6 18.4475 29.1344 17.5995 28.3712V21.6H20.7995C21.4361 21.6 22.0465 21.3471 22.4966 20.8971C22.9467 20.447 23.1995 19.8365 23.1995 19.2V18.2592C23.7346 18.0721 24.186 17.7013 24.4736 17.2129C24.7612 16.7244 24.8664 16.1498 24.7705 15.5912C24.6746 15.0325 24.3837 14.5259 23.9497 14.1614C23.5156 13.7968 22.9664 13.5979 22.3995 13.6C21.8351 13.6023 21.2896 13.8035 20.8588 14.1681C20.428 14.5328 20.1395 15.0376 20.044 15.5938C19.9485 16.1501 20.0521 16.7222 20.3366 17.2097C20.6211 17.6971 21.0682 18.0687 21.5995 18.2592V19.2C21.5995 19.4122 21.5152 19.6157 21.3652 19.7657C21.2152 19.9157 21.0117 20 20.7995 20H17.5995V4.7424C18.2395 4.2752 19.0235 4 19.8763 4ZM11.1995 20C11.4117 20 11.6152 20.0843 11.7652 20.2343C11.9152 20.3843 11.9995 20.5878 11.9995 20.8C11.9995 21.0122 11.9152 21.2157 11.7652 21.3657C11.6152 21.5157 11.4117 21.6 11.1995 21.6C10.9874 21.6 10.7839 21.5157 10.6338 21.3657C10.4838 21.2157 10.3995 21.0122 10.3995 20.8C10.3995 20.5878 10.4838 20.3843 10.6338 20.2343C10.7839 20.0843 10.9874 20 11.1995 20ZM22.3995 15.2C22.6117 15.2 22.8152 15.2843 22.9652 15.4343C23.1152 15.5843 23.1995 15.7878 23.1995 16C23.1995 16.2122 23.1152 16.4157 22.9652 16.5657C22.8152 16.7157 22.6117 16.8 22.3995 16.8C22.1874 16.8 21.9839 16.7157 21.8338 16.5657C21.6838 16.4157 21.5995 16.2122 21.5995 16C21.5995 15.7878 21.6838 15.5843 21.8338 15.4343C21.9839 15.2843 22.1874 15.2 22.3995 15.2ZM12.7995 10.4C13.0117 10.4 13.2152 10.4843 13.3652 10.6343C13.5152 10.7843 13.5995 10.9878 13.5995 11.2C13.5995 11.4122 13.5152 11.6157 13.3652 11.7657C13.2152 11.9157 13.0117 12 12.7995 12C12.5874 12 12.3839 11.9157 12.2338 11.7657C12.0838 11.6157 11.9995 11.4122 11.9995 11.2C11.9995 10.9878 12.0838 10.7843 12.2338 10.6343C12.3839 10.4843 12.5874 10.4 12.7995 10.4Z" fill="#060712"/>
<defs>
<filter id="filter0_f_2001_852" x="0" y="0" width="33.5996" height="33.6" filterUnits="userSpaceOnUse" color-interpolation-filters="sRGB">
<feFlood flood-opacity="0" result="BackgroundImageFix"/>
<feBlend mode="normal" in="SourceGraphic" in2="BackgroundImageFix" result="shape"/>
<feGaussianBlur stdDeviation="2" result="effect1_foregroundBlur_2001_852"/>
</filter>
</defs>
</svg>
