<svg width="30" height="30" viewBox="0 0 30 30" fill="none" xmlns="http://www.w3.org/2000/svg">
<path d="M9 4C7.14348 4 5.36301 4.7375 4.05025 6.05025C2.7375 7.36301 2 9.14348 2 11V21C2 22.8565 2.7375 24.637 4.05025 25.9497C5.36301 27.2625 7.14348 28 9 28H19C20.8565 28 22.637 27.2625 23.9497 25.9497C25.2625 24.637 26 22.8565 26 21V16C26 15.7348 26.1054 15.4804 26.2929 15.2929C26.4804 15.1054 26.7348 15 27 15C27.2652 15 27.5196 15.1054 27.7071 15.2929C27.8946 15.4804 28 15.7348 28 16V21C28 23.3869 27.0518 25.6761 25.364 27.364C23.6761 29.0518 21.3869 30 19 30H9C6.61305 30 4.32387 29.0518 2.63604 27.364C0.948211 25.6761 0 23.3869 0 21V11C0 8.61305 0.948211 6.32387 2.63604 4.63604C4.32387 2.94821 6.61305 2 9 2H14C14.2652 2 14.5196 2.10536 14.7071 2.29289C14.8946 2.48043 15 2.73478 15 3C15 3.26522 14.8946 3.51957 14.7071 3.70711C14.5196 3.89464 14.2652 4 14 4H9Z" fill="#F4FFF7"/>
<path d="M30 6C30 7.5913 29.3679 9.11742 28.2426 10.2426C27.1174 11.3679 25.5913 12 24 12C22.4087 12 20.8826 11.3679 19.7574 10.2426C18.6321 9.11742 18 7.5913 18 6C18 4.4087 18.6321 2.88258 19.7574 1.75736C20.8826 0.632141 22.4087 0 24 0C25.5913 0 27.1174 0.632141 28.2426 1.75736C29.3679 2.88258 30 4.4087 30 6Z" fill="#F4FFF7"/>
</svg>
