<svg width="32" height="32" viewBox="0 0 32 32" fill="none" xmlns="http://www.w3.org/2000/svg">
<g clip-path="url(#clip0_59_1713)">
<path d="M13.077 22.827C14.3841 22.0783 14.8526 20.984 14.6198 18.9881C14.4794 17.784 14.7191 17.2414 15.5548 16.864C16.3954 16.4845 17.3433 16.7255 17.9944 17.506C18.6284 18.266 18.828 19.1973 18.9534 20.1532C18.9865 20.4065 19.0015 20.6629 19.0286 20.9173C19.1058 21.6414 19.1069 21.6322 19.8472 21.6434C20.3467 21.6506 20.8573 21.625 21.3418 21.7214C22.5466 21.9604 23.299 22.7532 23.4655 23.9932C23.7704 26.2763 23.1876 28.3983 22.1744 30.4014C21.7832 31.1737 21.059 31.5973 20.2003 31.6106C18.1448 31.6414 16.0874 31.667 14.034 31.5983C13.3489 31.5747 12.767 31.4352 12.0327 31.7409C11.2754 32.0557 10.2933 31.8722 9.41657 31.8034C8.8177 31.7563 8.44955 31.264 8.44554 30.6229C8.42949 28.2301 8.42648 25.8373 8.44754 23.4445C8.45356 22.7337 8.93807 22.2609 9.62622 22.2363C10.3445 22.2106 11.0707 22.1696 11.78 22.2557C12.1852 22.305 12.5634 22.5911 13.077 22.8281V22.827ZM17.0615 30.6311H18.9163C21.0018 30.6311 21.2907 30.4424 21.9387 28.4301C22.3841 27.0486 22.7332 25.6404 22.4774 24.1624C22.3069 23.1768 21.725 22.6804 20.748 22.667C20.3638 22.6619 19.9796 22.666 19.5954 22.666C18.4588 22.666 18.1158 22.3183 18.0395 21.1716C17.9723 20.1686 17.9171 19.1511 17.3273 18.2834C16.9742 17.7645 16.4736 17.5932 15.9751 17.7952C15.4113 18.0229 15.5568 18.4957 15.6159 18.9306C15.9269 21.2291 15.2478 22.7163 13.3188 23.8773C13.0439 24.0424 12.9657 24.2229 12.9687 24.5275C12.9807 26.1675 12.9747 27.8075 12.9747 29.4475C12.9747 30.1357 13.1924 30.4229 13.8595 30.5686C14.0862 30.6178 14.3239 30.6281 14.5566 30.6301C15.3922 30.6373 16.2269 30.6332 17.0625 30.6332L17.0615 30.6311ZM9.43964 27.0168C9.43964 28.1265 9.44967 29.2363 9.43362 30.346C9.42861 30.7234 9.56403 30.8711 9.93118 30.8598C10.4648 30.8434 10.9995 30.8465 11.5342 30.8588C11.8582 30.866 11.9786 30.7214 11.9786 30.3983C11.9726 28.1624 11.9726 25.9255 11.9786 23.6896C11.9786 23.3634 11.8552 23.224 11.5352 23.2301C11.0015 23.2404 10.4669 23.2434 9.93218 23.2291C9.57306 23.2198 9.4266 23.3563 9.43262 23.7398C9.45068 24.8322 9.43864 25.9245 9.43864 27.0178L9.43964 27.0168Z" fill="#F4FFF7"/>
<path d="M20.2416 15.67C19.6959 15.5839 19.2224 15.5613 18.781 15.429C17.5422 15.0567 16.6755 13.8259 16.6634 12.4464C16.6484 10.8741 16.6464 9.30183 16.6634 7.72952C16.6825 5.95722 17.9926 4.61055 19.7129 4.60337C22.7715 4.59106 25.8301 4.59004 28.8886 4.60337C30.5899 4.61157 31.887 5.96029 31.897 7.70388C31.906 9.2926 31.906 10.8823 31.897 12.4721C31.887 14.2188 30.5478 15.5808 28.8365 15.5921C27.6668 15.6003 26.4961 15.5777 25.3265 15.6075C25.0697 15.6136 24.7728 15.7264 24.5711 15.8895C23.6924 16.5982 22.8387 17.3398 21.984 18.0782C21.6329 18.3818 21.2718 18.5972 20.8024 18.3859C20.3108 18.1644 20.2175 17.7398 20.2366 17.2413C20.2556 16.7162 20.2406 16.189 20.2406 15.67H20.2416ZM21.2337 17.3849C22.2509 16.5182 23.1276 15.7275 24.0565 15.0054C24.3625 14.7675 24.7978 14.6064 25.182 14.589C26.3326 14.5357 27.4882 14.5705 28.6418 14.5695C30.0793 14.5675 30.8959 13.7275 30.8979 12.2434C30.8999 10.7911 30.9009 9.33773 30.8979 7.8844C30.8949 6.46183 30.0864 5.6208 28.696 5.61773C25.7538 5.61055 22.8116 5.64234 19.8694 5.60337C18.5373 5.58593 17.6284 6.63516 17.6525 7.89363C17.6786 9.27722 17.7077 10.6649 17.6455 12.0464C17.5713 13.7029 18.7138 14.7039 20.0921 14.5829C20.8666 14.5152 21.2227 14.9295 21.2327 15.7254C21.2397 16.2321 21.2337 16.7388 21.2337 17.3839V17.3849Z" fill="#F4FFF7"/>
<path d="M11.7574 11.0845C11.7574 11.706 11.7484 12.2834 11.7604 12.8609C11.7694 13.2968 11.6129 13.6198 11.2307 13.8229C10.8325 14.0332 10.4904 13.9142 10.1704 13.6434C9.26961 12.8814 8.37883 12.107 7.45896 11.3706C7.24428 11.1983 6.93331 11.0793 6.66146 11.068C5.34435 11.0157 4.01921 11.0803 2.70811 10.9675C1.21344 10.8393 0.116008 9.50804 0.103971 7.95932C0.0909301 6.40445 0.0989551 4.8506 0.100961 3.29573C0.103971 1.41676 1.33482 0.059835 3.17256 0.0352196C6.19601 -0.00478036 9.22146 -0.0027291 12.2449 0.034194C14.0716 0.0557324 15.3316 1.42394 15.3406 3.28548C15.3476 4.72035 15.3436 6.15522 15.3416 7.59009C15.3396 9.6824 14.1659 10.9491 12.1336 11.0537C12.0353 11.0588 11.9359 11.0691 11.7574 11.0834V11.0845ZM10.6559 12.7347C10.7181 12.667 10.7372 12.6557 10.7382 12.6445C10.7492 12.1162 10.7492 11.587 10.7693 11.0588C10.7944 10.3962 11.1304 10.0588 11.7714 10.0311C11.9048 10.025 12.0383 10.0311 12.1727 10.028C13.5008 9.98701 14.3395 9.10599 14.3425 7.74086C14.3465 6.25471 14.3485 4.76855 14.3425 3.28342C14.3364 1.95727 13.4798 1.05778 12.1777 1.05266C9.20441 1.03932 6.23112 1.03932 3.25783 1.05266C1.94071 1.05881 1.10911 1.93573 1.1051 3.28035C1.10008 4.74907 1.10209 6.21778 1.1051 7.6865C1.10711 9.18496 1.92667 10.0219 3.40629 10.028C4.55889 10.0332 5.7125 9.99727 6.86309 10.0475C7.23024 10.0639 7.64654 10.2229 7.94046 10.4506C8.86736 11.1727 9.7461 11.9593 10.659 12.7337L10.6559 12.7347Z" fill="#F4FFF7"/>
<path d="M24.3296 7.96001C25.6146 7.96001 26.8996 7.96001 28.1846 7.96001C28.3341 7.96001 28.5257 7.9159 28.625 7.9918C28.7895 8.11693 28.9841 8.31796 28.9962 8.49847C29.0062 8.63898 28.7815 8.84719 28.616 8.93334C28.4675 9.01026 28.2569 8.96924 28.0743 8.96924C25.5544 8.97026 23.0345 8.97026 20.5137 8.96924C20.3632 8.96924 20.2127 8.97129 20.0633 8.96103C19.7573 8.94052 19.5537 8.80308 19.5587 8.45744C19.5637 8.11488 19.7673 7.97847 20.0743 7.96308C20.2077 7.9559 20.3411 7.95796 20.4745 7.95796C21.7596 7.95796 23.0446 7.95796 24.3296 7.95796V7.96001Z" fill="#F4FFF7"/>
<path d="M22.6509 12.2099C21.8323 12.2099 21.0138 12.2078 20.1952 12.2099C19.8642 12.2099 19.5783 12.1442 19.5622 11.7319C19.5452 11.295 19.8341 11.1863 20.1882 11.1863C21.8253 11.1832 23.4624 11.1852 25.0995 11.1852C25.4506 11.1852 25.7656 11.2837 25.7676 11.6991C25.7696 12.1155 25.4647 12.214 25.1066 12.2109C24.288 12.2047 23.4695 12.2088 22.6509 12.2088V12.2099Z" fill="#F4FFF7"/>
<path d="M7.67174 4.423C6.33557 4.423 4.99839 4.4189 3.66221 4.42608C3.31011 4.42813 2.99412 4.36352 2.97908 3.93993C2.96303 3.47941 3.29406 3.39941 3.66522 3.39941C6.35563 3.40147 9.04503 3.39941 11.7354 3.39941C12.0936 3.39941 12.4366 3.44352 12.4366 3.91941C12.4366 4.40249 12.0895 4.42506 11.7324 4.42403C10.3792 4.41993 9.02597 4.423 7.67274 4.423H7.67174Z" fill="#F4FFF7"/>
<path d="M9.34423 7.67483C8.54272 7.67483 7.74122 7.67483 6.93971 7.67483C6.57658 7.67483 6.22649 7.5979 6.23451 7.14662C6.24254 6.69226 6.59564 6.64816 6.95877 6.64919C8.56178 6.65534 10.1648 6.65329 11.7678 6.65021C12.1119 6.65021 12.4309 6.68919 12.4379 7.13739C12.4459 7.61226 12.1079 7.67278 11.7487 7.6738C10.9472 7.67688 10.1457 7.6738 9.34423 7.6738V7.67483Z" fill="#F4FFF7"/>
</g>
<defs>
<clipPath id="clip0_59_1713">
<rect width="32" height="32" fill="white"/>
</clipPath>
</defs>
</svg>
