<svg width="49" height="49" viewBox="0 0 49 49" fill="none" xmlns="http://www.w3.org/2000/svg">
<rect width="49" height="49" rx="24.5" fill="#F53B00"/>
<rect x="0.7" y="0.7" width="47.6" height="47.6" rx="23.8" stroke="url(#paint0_linear_59_838)" stroke-opacity="0.3" stroke-width="1.4"/>
<g opacity="0.25" filter="url(#filter0_f_59_838)">
<path fill-rule="evenodd" clip-rule="evenodd" d="M13.6185 13.619C11.6665 15.5737 11.6665 18.715 11.6665 25.0003C11.6665 31.2857 11.6665 34.4283 13.6185 36.3803C15.5732 38.3337 18.7145 38.3337 24.9998 38.3337C31.2852 38.3337 34.4278 38.3337 36.3798 36.3803C38.3332 34.4297 38.3332 31.2857 38.3332 25.0003C38.3332 18.715 38.3332 15.5723 36.3798 13.619C34.4292 11.667 31.2852 11.667 24.9998 11.667C18.7145 11.667 15.5718 11.667 13.6185 13.619ZM32.4345 22.9737C32.5968 22.7692 32.6726 22.5093 32.6459 22.2496C32.6191 21.9899 32.4919 21.751 32.2913 21.5839C32.0908 21.4167 31.8328 21.3347 31.5726 21.3552C31.3123 21.3757 31.0704 21.4972 30.8985 21.6937L28.5025 24.5683C28.0092 25.1617 27.7038 25.523 27.4545 25.7483C27.3893 25.8116 27.3162 25.8662 27.2372 25.911L27.2225 25.9177L27.2118 25.9123L27.2078 25.911C27.1283 25.8663 27.0548 25.8117 26.9892 25.7483C26.7398 25.5217 26.4358 25.1617 25.9412 24.5683L25.5518 24.1017C25.1145 23.575 24.7185 23.1017 24.3505 22.7683C23.9492 22.4057 23.4438 22.083 22.7772 22.083C22.1105 22.083 21.6065 22.4057 21.2038 22.7683C20.8358 23.1017 20.4412 23.575 20.0038 24.1017L17.5638 27.027C17.4798 27.1279 17.4165 27.2444 17.3774 27.3699C17.3384 27.4953 17.3245 27.6272 17.3364 27.758C17.3606 28.0221 17.4886 28.2659 17.6925 28.4357C17.8964 28.6054 18.1593 28.6872 18.4235 28.6631C18.6877 28.6389 18.9314 28.5109 19.1012 28.307L21.4972 25.4323C21.9905 24.839 22.2958 24.4777 22.5452 24.2523C22.6104 24.1891 22.6834 24.1344 22.7625 24.0897L22.7718 24.0857L22.7772 24.083L22.7918 24.0897C22.8714 24.1343 22.9449 24.189 23.0105 24.2523C23.2598 24.479 23.5638 24.839 24.0585 25.4323L24.4478 25.899C24.8865 26.4257 25.2812 26.899 25.6492 27.2323C26.0505 27.595 26.5558 27.9177 27.2225 27.9177C27.8892 27.9177 28.3932 27.595 28.7958 27.2323C29.1638 26.899 29.5585 26.4257 29.9958 25.899L32.4345 22.9737Z" fill="#F4FFF7"/>
</g>
<path fill-rule="evenodd" clip-rule="evenodd" d="M13.6185 13.619C11.6665 15.5737 11.6665 18.715 11.6665 25.0003C11.6665 31.2857 11.6665 34.4283 13.6185 36.3803C15.5732 38.3337 18.7145 38.3337 24.9998 38.3337C31.2852 38.3337 34.4278 38.3337 36.3798 36.3803C38.3332 34.4297 38.3332 31.2857 38.3332 25.0003C38.3332 18.715 38.3332 15.5723 36.3798 13.619C34.4292 11.667 31.2852 11.667 24.9998 11.667C18.7145 11.667 15.5718 11.667 13.6185 13.619ZM32.4345 22.9737C32.5968 22.7692 32.6726 22.5093 32.6459 22.2496C32.6191 21.9899 32.4919 21.751 32.2913 21.5839C32.0908 21.4167 31.8328 21.3347 31.5726 21.3552C31.3123 21.3757 31.0704 21.4972 30.8985 21.6937L28.5025 24.5683C28.0092 25.1617 27.7038 25.523 27.4545 25.7483C27.3893 25.8116 27.3162 25.8662 27.2372 25.911L27.2225 25.9177L27.2118 25.9123L27.2078 25.911C27.1283 25.8663 27.0548 25.8117 26.9892 25.7483C26.7398 25.5217 26.4358 25.1617 25.9412 24.5683L25.5518 24.1017C25.1145 23.575 24.7185 23.1017 24.3505 22.7683C23.9492 22.4057 23.4438 22.083 22.7772 22.083C22.1105 22.083 21.6065 22.4057 21.2038 22.7683C20.8358 23.1017 20.4412 23.575 20.0038 24.1017L17.5638 27.027C17.4798 27.1279 17.4165 27.2444 17.3774 27.3699C17.3384 27.4953 17.3245 27.6272 17.3364 27.758C17.3606 28.0221 17.4886 28.2659 17.6925 28.4357C17.8964 28.6054 18.1593 28.6872 18.4235 28.6631C18.6877 28.6389 18.9314 28.5109 19.1012 28.307L21.4972 25.4323C21.9905 24.839 22.2958 24.4777 22.5452 24.2523C22.6104 24.1891 22.6834 24.1344 22.7625 24.0897L22.7718 24.0857L22.7772 24.083L22.7918 24.0897C22.8714 24.1343 22.9449 24.189 23.0105 24.2523C23.2598 24.479 23.5638 24.839 24.0585 25.4323L24.4478 25.899C24.8865 26.4257 25.2812 26.899 25.6492 27.2323C26.0505 27.595 26.5558 27.9177 27.2225 27.9177C27.8892 27.9177 28.3932 27.595 28.7958 27.2323C29.1638 26.899 29.5585 26.4257 29.9958 25.899L32.4345 22.9737Z" fill="#F4FFF7"/>
<defs>
<filter id="filter0_f_59_838" x="2" y="2" width="46" height="46" filterUnits="userSpaceOnUse" color-interpolation-filters="sRGB">
<feFlood flood-opacity="0" result="BackgroundImageFix"/>
<feBlend mode="normal" in="SourceGraphic" in2="BackgroundImageFix" result="shape"/>
<feGaussianBlur stdDeviation="3.5" result="effect1_foregroundBlur_59_838"/>
</filter>
<linearGradient id="paint0_linear_59_838" x1="4.655" y1="0.898333" x2="55.3628" y2="15.7871" gradientUnits="userSpaceOnUse">
<stop stop-color="white" stop-opacity="0.7"/>
<stop offset="1" stop-color="white" stop-opacity="0.4"/>
</linearGradient>
</defs>
</svg>
