<svg width="32" height="32" viewBox="0 0 32 32" fill="none" xmlns="http://www.w3.org/2000/svg">
<path d="M23.072 28.0205C24.653 26.4438 25.9069 24.5702 26.7615 22.5075C27.6162 20.4447 28.0547 18.2333 28.052 16.0005C28.0547 13.7676 27.6162 11.5563 26.7615 9.49349C25.9069 7.43069 24.653 5.55713 23.072 3.98047L21.656 5.39447C23.051 6.78565 24.1574 8.43881 24.9115 10.259C25.6655 12.0791 26.0525 14.0303 26.05 16.0005C26.05 20.1425 24.37 23.8925 21.656 26.6065L23.072 28.0205Z" fill="#F4FFF7"/>
<path d="M20.242 25.1925C21.451 23.9867 22.4097 22.5539 23.0632 20.9765C23.7167 19.399 24.0521 17.7079 24.05 16.0005C24.0521 14.293 23.7167 12.6019 23.0632 11.0245C22.4097 9.44702 21.451 8.01424 20.242 6.80847L18.828 8.22247C19.851 9.24276 20.6622 10.4551 21.2152 11.7899C21.7681 13.1248 22.0518 14.5557 22.05 16.0005C22.0523 17.4455 21.7691 18.8767 21.2165 20.2118C20.6639 21.547 19.8528 22.7598 18.83 23.7805L20.242 25.1925Z" fill="#F4FFF7"/>
<path d="M20.05 16.0005C20.0515 17.1826 19.8195 18.3534 19.3671 19.4455C18.9147 20.5377 18.251 21.5297 17.414 22.3645L16 20.9505C16.651 20.3011 17.1672 19.5295 17.519 18.6801C17.8708 17.8306 18.0513 16.9199 18.05 16.0005C18.05 14.0685 17.266 12.3185 16 11.0505L17.414 9.63647C18.251 10.4713 18.9147 11.4633 19.3671 12.5554C19.8195 13.6476 20.0515 14.8183 20.05 16.0005ZM14 8.00047C13.9997 7.8123 13.9464 7.62802 13.8461 7.46882C13.7458 7.30961 13.6026 7.18194 13.4329 7.10047C13.2633 7.01901 13.0742 6.98705 12.8872 7.00828C12.7002 7.0295 12.523 7.10305 12.376 7.22047L7.65 11.0005H3C2.73478 11.0005 2.48043 11.1058 2.29289 11.2934C2.10536 11.4809 2 11.7353 2 12.0005V20.0005C2 20.2657 2.10536 20.52 2.29289 20.7076C2.48043 20.8951 2.73478 21.0005 3 21.0005H7.65L12.376 24.7805C12.523 24.8979 12.7002 24.9714 12.8872 24.9927C13.0742 25.0139 13.2633 24.9819 13.4329 24.9005C13.6026 24.819 13.7458 24.6913 13.8461 24.5321C13.9464 24.3729 13.9997 24.1886 14 24.0005V8.00047ZM8.624 12.7805L12 10.0805V21.9205L8.624 19.2205C8.44699 19.0785 8.22694 19.0009 8 19.0005H4V13.0005H8C8.22694 13.0001 8.44699 12.9225 8.624 12.7805Z" fill="#F4FFF7"/>
</svg>
